<svg width="143" height="22" viewBox="0 0 143 22" fill="none" xmlns="http://www.w3.org/2000/svg">
    <g opacity="0.5">
        <path d="M7.92 3.64V5.048H2.992V15H1.504V3.64H7.92ZM7.38412 15.112C7.02146 15.112 6.78146 15.096 6.66413 15.064V13.832C6.73879 13.8533 6.90946 13.864 7.17613 13.864C7.50679 13.864 7.75213 13.752 7.91213 13.528C8.07213 13.2933 8.15213 12.8827 8.15213 12.296V7H14.3281V15H12.9521V8.264H9.52813V12.584C9.52813 13.4053 9.33079 14.0347 8.93613 14.472C8.54146 14.8987 8.02413 15.112 7.38412 15.112ZM20.2326 15.16C19.1233 15.16 18.19 14.7547 17.4326 13.944C16.686 13.1333 16.3126 12.152 16.3126 11C16.3126 9.848 16.686 8.86667 17.4326 8.056C18.19 7.24533 19.1233 6.84 20.2326 6.84C20.8193 6.84 21.3633 6.97333 21.8646 7.24C22.3766 7.496 22.7713 7.82667 23.0486 8.232V7H24.4246V15H23.0486V13.768C22.7713 14.1733 22.3766 14.5093 21.8646 14.776C21.3633 15.032 20.8193 15.16 20.2326 15.16ZM20.4406 13.896C21.23 13.896 21.8806 13.6187 22.3926 13.064C22.9046 12.5093 23.1606 11.8213 23.1606 11C23.1606 10.1787 22.9046 9.49067 22.3926 8.936C21.8806 8.38133 21.23 8.104 20.4406 8.104C19.6406 8.104 18.9846 8.38133 18.4726 8.936C17.9606 9.49067 17.7046 10.1787 17.7046 11C17.7046 11.8213 17.9606 12.5093 18.4726 13.064C18.9846 13.6187 19.6406 13.896 20.4406 13.896ZM27.0148 15V7H30.5028C31.3881 7 32.0654 7.19733 32.5348 7.592C33.0041 7.98667 33.2388 8.51467 33.2388 9.176C33.2388 9.80533 32.9774 10.3227 32.4548 10.728C33.3294 11.1547 33.7668 11.8053 33.7668 12.68C33.7668 13.352 33.5268 13.9067 33.0468 14.344C32.5668 14.7813 31.8468 15 30.8868 15H27.0148ZM28.3908 13.8H30.9668C31.3934 13.8 31.7294 13.6933 31.9748 13.48C32.2308 13.2667 32.3588 12.9733 32.3588 12.6C32.3588 12.2267 32.2308 11.9387 31.9748 11.736C31.7294 11.5227 31.3934 11.416 30.9668 11.416H28.3908V13.8ZM28.3908 10.312H30.6148C31.4361 10.312 31.8468 9.95467 31.8468 9.24C31.8468 8.86667 31.7294 8.6 31.4948 8.44C31.2601 8.26933 30.9668 8.184 30.6148 8.184H28.3908V10.312ZM35.7335 15V7H37.1095V10.296H41.4775V7H42.8535V15H41.4775V11.544H37.1095V15H35.7335ZM48.7483 15.16C47.6389 15.16 46.7056 14.7547 45.9483 13.944C45.2016 13.1333 44.8283 12.152 44.8283 11C44.8283 9.848 45.2016 8.86667 45.9483 8.056C46.7056 7.24533 47.6389 6.84 48.7483 6.84C49.3349 6.84 49.8789 6.97333 50.3803 7.24C50.8923 7.496 51.2869 7.82667 51.5643 8.232V7H52.9403V15H51.5643V13.768C51.2869 14.1733 50.8923 14.5093 50.3803 14.776C49.8789 15.032 49.3349 15.16 48.7483 15.16ZM48.9563 13.896C49.7456 13.896 50.3963 13.6187 50.9083 13.064C51.4203 12.5093 51.6763 11.8213 51.6763 11C51.6763 10.1787 51.4203 9.49067 50.9083 8.936C50.3963 8.38133 49.7456 8.104 48.9563 8.104C48.1563 8.104 47.5003 8.38133 46.9883 8.936C46.4763 9.49067 46.2203 10.1787 46.2203 11C46.2203 11.8213 46.4763 12.5093 46.9883 13.064C47.5003 13.6187 48.1563 13.896 48.9563 13.896ZM54.1704 15L57.4024 11.864C56.773 11.7147 56.2877 11.4373 55.9464 11.032C55.605 10.616 55.4344 10.12 55.4344 9.544C55.4344 8.808 55.685 8.2 56.1864 7.72C56.6984 7.24 57.4184 7 58.3464 7H61.3064V15H59.9304V12.088H58.9064L55.8984 15H54.1704ZM58.4264 10.856H59.9304V8.232H58.4264C57.349 8.232 56.8104 8.67467 56.8104 9.56C56.8104 9.976 56.949 10.296 57.2264 10.52C57.5144 10.744 57.9144 10.856 58.4264 10.856Z" fill="#828282"/>
        <path d="M0 20.088H62.6184V21.288H0V20.088Z" fill="#828282"/>
        <path d="M95.208 12.632V5.912H95.112C93.8213 5.90133 92.84 6.19467 92.168 6.792C91.5067 7.37867 91.176 8.2 91.176 9.256C91.176 10.3227 91.5067 11.1547 92.168 11.752C92.8293 12.3387 93.8107 12.632 95.112 12.632H95.208ZM96.68 15.48H95.208V13.992H95.128C93.4427 13.992 92.1093 13.5707 91.128 12.728C90.1573 11.8853 89.672 10.728 89.672 9.256C89.672 7.784 90.1573 6.632 91.128 5.8C92.0987 4.968 93.432 4.552 95.128 4.552H95.208V3.16H96.68V4.552H96.776C98.472 4.552 99.8 4.968 100.76 5.8C101.731 6.632 102.216 7.784 102.216 9.256C102.216 10.728 101.725 11.8853 100.744 12.728C99.7733 13.5707 98.4507 13.992 96.776 13.992H96.68V15.48ZM96.68 12.632H96.776C98.0773 12.632 99.0587 12.3387 99.72 11.752C100.392 11.1547 100.728 10.3227 100.728 9.256C100.728 8.2 100.392 7.37867 99.72 6.792C99.048 6.19467 98.0667 5.90133 96.776 5.912H96.68V12.632ZM107.739 15.16C106.533 15.16 105.531 14.76 104.731 13.96C103.941 13.1493 103.547 12.1627 103.547 11C103.547 9.83733 103.941 8.856 104.731 8.056C105.531 7.24533 106.533 6.84 107.739 6.84C108.933 6.84 109.925 7.24533 110.715 8.056C111.515 8.856 111.915 9.83733 111.915 11C111.915 12.1627 111.515 13.1493 110.715 13.96C109.925 14.76 108.933 15.16 107.739 15.16ZM105.723 13.048C106.245 13.6027 106.917 13.88 107.739 13.88C108.56 13.88 109.227 13.6027 109.739 13.048C110.251 12.4933 110.507 11.8107 110.507 11C110.507 10.1893 110.251 9.50667 109.739 8.952C109.227 8.39733 108.56 8.12 107.739 8.12C106.917 8.12 106.245 8.39733 105.723 8.952C105.211 9.50667 104.955 10.1893 104.955 11C104.955 11.8107 105.211 12.4933 105.723 13.048ZM115.266 18.344H113.89V7H115.266V8.232C115.543 7.82667 115.932 7.496 116.434 7.24C116.946 6.97333 117.495 6.84 118.082 6.84C119.191 6.84 120.119 7.24533 120.866 8.056C121.623 8.86667 122.002 9.848 122.002 11C122.002 12.152 121.623 13.1333 120.866 13.944C120.119 14.7547 119.191 15.16 118.082 15.16C117.495 15.16 116.946 15.032 116.434 14.776C115.932 14.5093 115.543 14.1733 115.266 13.768V18.344ZM115.922 13.064C116.434 13.6187 117.084 13.896 117.874 13.896C118.663 13.896 119.314 13.6187 119.826 13.064C120.338 12.5093 120.594 11.8213 120.594 11C120.594 10.1787 120.338 9.49067 119.826 8.936C119.314 8.38133 118.663 8.104 117.874 8.104C117.084 8.104 116.434 8.38133 115.922 8.936C115.41 9.49067 115.154 10.1787 115.154 11C115.154 11.8213 115.41 12.5093 115.922 13.064ZM131.203 7L126.867 16.424C126.537 17.16 126.163 17.688 125.747 18.008C125.342 18.3387 124.83 18.504 124.211 18.504C123.817 18.504 123.518 18.4773 123.315 18.424V17.208C123.475 17.24 123.737 17.256 124.099 17.256C124.697 17.256 125.177 16.8507 125.539 16.04L126.195 14.632L122.659 7H124.179L126.947 13.032L129.667 7H131.203ZM132.593 7H133.857L136.817 10.936L139.793 7H141.057V15H139.681V9.224L136.817 13L133.969 9.224V15H132.593V7Z" fill="#828282"/>
    </g>
</svg>
