<!-- icon666.com - MILLIONS OF FREE VECTOR ICONS --><svg id="Layer_10" enable-background="new 0 0 512 512" viewBox="0 0 512 512" xmlns="http://www.w3.org/2000/svg" xmlns:xlink="http://www.w3.org/1999/xlink"><linearGradient id="lg1"><stop offset="0" stop-color="#f8cb3f"></stop><stop offset="1" stop-color="#e2434b"></stop></linearGradient><linearGradient id="SVGID_1_" gradientTransform="matrix(8 0 0 -8 343 5085)" gradientUnits="userSpaceOnUse" x1="-10.875" x2="-10.875" xlink:href="#lg1" y1="633.625" y2="574.174"></linearGradient><linearGradient id="SVGID_3_" gradientTransform="matrix(8 0 0 -8 343 5085)" gradientUnits="userSpaceOnUse" x1="9.125" x2="9.125" xlink:href="#lg1" y1="633.625" y2="574.174"></linearGradient><linearGradient id="SVGID_4_" gradientTransform="matrix(8 0 0 -8 343 5085)" gradientUnits="userSpaceOnUse" x1="5.125" x2="5.125" xlink:href="#lg1" y1="633.625" y2="574.174"></linearGradient><path d="m495.624 215.2c.243-4.412-3.136-8.185-7.548-8.428-.121-.007-.243-.011-.364-.012l-26.592-.232 21.416-15.768c3.56-2.617 4.325-7.624 1.708-11.184-.074-.1-.15-.199-.228-.296-24.928-30.8-91.744-38.864-140.216-26.912-2.696-50.328-31.272-113.336-68.912-127.84-2.041-.776-4.31-.693-6.288.232-1.973.934-3.479 2.633-4.168 4.704l-8.432 25.24-8.416-25.232c-1.397-4.192-5.928-6.457-10.119-5.06-.116.039-.231.08-.345.124-37.64 14.504-66.216 77.52-68.912 127.848-48.56-12-115.296-3.88-140.216 26.904-2.78 3.434-2.25 8.471 1.184 11.252.097.078.196.155.296.228l21.408 15.76-26.592.232c-4.418.042-7.966 3.657-7.924 8.076.001.122.005.243.012.364 2.152 39 50.168 83.904 96.352 103.2-32.944 37.736-56.392 101.216-40.256 137.6 1.792 4.039 6.518 5.86 10.557 4.068.111-.049.222-.101.331-.156l23.784-11.912-11.888 23.784c-1.975 3.952-.371 8.757 3.581 10.732.109.055.219.107.331.156 38.728 17.184 108.328-10.576 144.664-46.904 4.464-4.449 8.535-9.275 12.168-14.424 3.634 5.141 7.705 9.959 12.168 14.4 28.744 28.744 78.296 52.136 116.928 52.136 9.508.208 18.955-1.572 27.736-5.224 4.039-1.792 5.86-6.518 4.068-10.557-.049-.111-.101-.222-.156-.331l-11.888-23.768 23.784 11.888c3.95 1.98 8.757.382 10.736-3.568.053-.106.103-.212.152-.32 16.12-36.328-7.28-99.752-40.224-137.496 45.88-19.136 94.176-64.192 96.32-103.304zm-260.28-171.88 13.072 39.2c1.38 4.197 5.901 6.482 10.098 5.102 2.415-.794 4.308-2.687 5.102-5.102l13.072-39.2c28.44 18.184 50.4 73.464 51.256 114.112l-39.696 52.84c-7.205-5.087-15.516-8.389-24.248-9.632v-64.64h-16v64.64c-8.721 1.237-17.023 4.527-24.224 9.6l-39.696-52.848c.896-40.592 22.824-95.888 51.264-114.072zm20.656 252.68c-22.091 0-40-17.909-40-40s17.909-40 40-40 40 17.909 40 40c-.026 22.08-17.92 39.974-40 40zm-222.296-73.32 41.32-.368c4.418-.035 7.972-3.645 7.937-8.063-.02-2.524-1.23-4.891-3.265-6.385l-33.296-24.488c26.584-21.92 88-25.52 126.944-12.888.2.072.416.088.616.144l38.096 50.752c-5.667 7.165-9.486 15.612-11.12 24.6l-62.776-15.664-3.84 15.52 66.056 16.464c.292 2.484.752 4.946 1.376 7.368l-78.552 35.712c-37.688-14.312-81.192-50.984-89.496-82.704zm100.632 95.176 73.512-33.4c3.587 6.045 8.273 11.366 13.816 15.688l-48.8 69.856 13.12 9.12 49.6-71.016c3.999 1.562 8.165 2.655 12.416 3.256v92.456c-4.126 7.598-9.344 14.549-15.488 20.632-28.888 28.888-85.128 53.6-118.816 46.192l18.488-36.96c1.979-3.95.381-8.757-3.569-10.736-2.255-1.13-4.912-1.13-7.167 0l-36.96 18.488c-7.408-33.656 16.43-90.247 45.286-119.095zm247.264 3.444c28.888 28.896 53.312 86.476 45.904 120.132l-36.96-18.488c-3.95-1.979-8.757-.381-10.736 3.569-1.13 2.255-1.13 4.912 0 7.167l18.488 36.96c-33.664 7.376-89.928-17.312-118.816-46.192-6.141-6.083-11.357-13.035-15.48-20.632v-92.456c4.243-.606 8.401-1.701 12.392-3.264l49.6 71.016 13.12-9.12-48.8-69.856c5.543-4.322 10.229-9.643 13.816-15.688l73.368 33.336zm7.216-15.868-78.576-35.768c.624-2.422 1.084-4.884 1.376-7.368l66.064-16.456-3.84-15.52-62.784 15.664c-1.636-8.988-5.458-17.436-11.128-24.6l38.208-50.904c.208-.048.432 0 .632-.056 38.864-12.568 100.232-8.96 126.824 12.952l-33.28 24.496c-3.561 2.615-4.328 7.622-1.713 11.183 1.494 2.035 3.861 3.245 6.385 3.265l41.32.368c-8.32 31.784-51.984 68.512-89.504 82.704z" fill="url(#SVGID_1_)"></path><path d="m256 232c-13.255 0-24 10.745-24 24s10.745 24 24 24 24-10.745 24-24-10.745-24-24-24zm0 32c-4.418 0-8-3.582-8-8s3.582-8 8-8 8 3.582 8 8-3.582 8-8 8z" fill="url(#SVGID_1_)"></path><path d="m408 184h16v16h-16z" fill="url(#SVGID_3_)"></path><path d="m376 184h16v16h-16z" fill="url(#SVGID_4_)"></path></svg>